<?xml version="1.0" encoding="UTF-8"?>
<svg id="Layer_2" data-name="Layer 2" xmlns="http://www.w3.org/2000/svg" xmlns:xlink="http://www.w3.org/1999/xlink" viewBox="0 0 359.95 121.98">
  <defs>
    <style>
      .cls-1 {
        fill: url(#linear-gradient);
      }

      .cls-1, .cls-2, .cls-3 {
        stroke-width: 0px;
      }

      .cls-2 {
        fill: #70ba44;
      }

      .cls-3 {
        fill: #899396;
      }
    </style>
    <linearGradient id="linear-gradient" x1="55.33" y1="110.67" x2="55.33" y2="0" gradientUnits="userSpaceOnUse">
      <stop offset="0" stop-color="#70ba44"/>
      <stop offset="1" stop-color="#afd136"/>
    </linearGradient>
  </defs>
  <g id="Nelnet_Logo" data-name="Nelnet Logo">
    <g>
      <g>
        <path class="cls-2" d="m151.8,121.76v-15.79h12.18v2.84h-8.91v3.72h5.93v2.73h-5.93v6.5h-3.27Z"/>
        <path class="cls-2" d="m167.66,108.6c-.48,0-.89-.17-1.24-.52-.35-.35-.52-.77-.52-1.26s.17-.89.52-1.23c.35-.34.76-.51,1.24-.51s.91.17,1.25.51c.34.34.51.75.51,1.23s-.17.92-.51,1.26c-.34.35-.76.52-1.25.52Zm-1.53,13.16v-11.76h3.09v11.76h-3.09Z"/>
        <path class="cls-2" d="m171.75,121.76v-11.76h3.09v.97c.9-.8,2.01-1.2,3.32-1.2.9,0,1.7.2,2.4.6.7.4,1.24.95,1.64,1.65.39.7.59,1.51.59,2.43v7.31h-3.07v-6.84c0-.77-.22-1.37-.67-1.82-.44-.44-1.04-.67-1.79-.67-.53,0-.99.1-1.4.3s-.74.49-1.02.87v8.15h-3.09Z"/>
        <path class="cls-2" d="m190.68,121.92c-1.11,0-2.12-.27-3.02-.81-.9-.54-1.62-1.26-2.15-2.17-.53-.9-.8-1.92-.8-3.05s.27-2.15.8-3.07c.53-.92,1.26-1.64,2.18-2.18.92-.53,1.95-.8,3.09-.8.57,0,1.13.08,1.67.24.54.16,1.05.39,1.53.69v-.77h3.09v11.76h-3.05v-.97c-.96.75-2.08,1.13-3.34,1.13Zm.5-2.64c.56,0,1.08-.1,1.56-.29.48-.2.89-.47,1.24-.83v-4.58c-.35-.35-.76-.61-1.24-.8s-1-.28-1.56-.28c-.63,0-1.21.15-1.74.44-.53.29-.94.7-1.24,1.22-.3.52-.45,1.09-.45,1.73s.15,1.23.46,1.74c.31.51.72.92,1.24,1.22.52.3,1.09.45,1.73.45Z"/>
        <path class="cls-2" d="m199.59,121.76v-11.76h3.09v.97c.9-.8,2.01-1.2,3.32-1.2.9,0,1.7.2,2.4.6.7.4,1.25.95,1.64,1.65.39.7.59,1.51.59,2.43v7.31h-3.07v-6.84c0-.77-.22-1.37-.67-1.82s-1.04-.67-1.79-.67c-.53,0-.99.1-1.4.3s-.75.49-1.02.87v8.15h-3.09Z"/>
        <path class="cls-2" d="m218.68,121.98c-1.14,0-2.18-.27-3.1-.8-.93-.53-1.66-1.26-2.21-2.19s-.82-1.97-.82-3.12.27-2.17.81-3.09c.54-.92,1.28-1.65,2.21-2.19s1.97-.81,3.11-.81c.95,0,1.85.18,2.7.54.85.36,1.58.88,2.18,1.56l-1.87,2.01c-.44-.48-.89-.83-1.37-1.06s-.99-.34-1.55-.34c-.6,0-1.14.15-1.62.44-.48.29-.86.7-1.13,1.21-.27.51-.41,1.1-.41,1.76s.14,1.21.43,1.73c.29.52.67.93,1.15,1.23s1.03.45,1.65.45c.53,0,1.02-.11,1.48-.34s.9-.56,1.32-1.02l1.85,1.94c-.62.66-1.34,1.18-2.17,1.55-.83.37-1.71.55-2.64.55Z"/>
        <path class="cls-2" d="m226.74,108.6c-.48,0-.9-.17-1.24-.52-.35-.35-.52-.77-.52-1.26s.17-.89.52-1.23c.35-.34.76-.51,1.24-.51s.91.17,1.25.51.51.75.51,1.23-.17.92-.51,1.26-.76.52-1.25.52Zm-1.54,13.16v-11.76h3.09v11.76h-3.09Z"/>
        <path class="cls-2" d="m236.26,121.92c-1.11,0-2.12-.27-3.02-.81s-1.62-1.26-2.16-2.17c-.53-.9-.8-1.92-.8-3.05s.27-2.15.8-3.07c.53-.92,1.26-1.64,2.18-2.18.92-.53,1.95-.8,3.09-.8.57,0,1.13.08,1.67.24.54.16,1.05.39,1.53.69v-.77h3.09v11.76h-3.05v-.97c-.96.75-2.08,1.13-3.34,1.13Zm.5-2.64c.56,0,1.08-.1,1.56-.29.48-.2.89-.47,1.24-.83v-4.58c-.35-.35-.76-.61-1.24-.8-.48-.19-1-.28-1.56-.28-.63,0-1.21.15-1.74.44s-.94.7-1.24,1.22c-.3.52-.45,1.09-.45,1.73s.15,1.23.46,1.74c.31.51.72.92,1.24,1.22.52.3,1.09.45,1.73.45Z"/>
        <path class="cls-2" d="m245.17,121.76v-15.79l3.09-.52v16.31h-3.09Z"/>
        <path class="cls-2" d="m261.26,121.98c-1.26,0-2.5-.24-3.72-.72-1.22-.48-2.3-1.15-3.25-2.01l1.87-2.37c.92.81,1.8,1.4,2.65,1.77.85.37,1.75.55,2.7.55.66,0,1.23-.08,1.71-.24.48-.16.85-.39,1.12-.69.26-.3.39-.65.39-1.06,0-.54-.2-.96-.59-1.26-.39-.3-1.06-.53-2.01-.68l-3.14-.54c-1.34-.24-2.36-.72-3.07-1.43s-1.06-1.64-1.06-2.79c0-.98.26-1.82.77-2.54.51-.71,1.23-1.26,2.16-1.65.92-.38,2.03-.58,3.31-.58,1.14,0,2.3.19,3.46.58,1.17.38,2.18.93,3.06,1.64l-1.76,2.41c-1.65-1.26-3.32-1.9-4.99-1.9-.59,0-1.1.08-1.53.23-.44.15-.77.36-1,.62-.23.26-.35.57-.35.91,0,.51.18.9.53,1.15s.93.46,1.73.61l2.98.47c1.58.26,2.76.76,3.55,1.5.79.74,1.18,1.73,1.18,2.94,0,1.02-.27,1.91-.82,2.66-.55.75-1.32,1.34-2.32,1.76-1,.42-2.19.63-3.55.63Z"/>
        <path class="cls-2" d="m275.54,121.98c-1.17,0-2.24-.27-3.19-.82-.96-.55-1.71-1.28-2.27-2.19s-.83-1.94-.83-3.08.27-2.15.8-3.08c.53-.93,1.26-1.66,2.18-2.2.92-.54,1.93-.81,3.05-.81s2.13.27,3.01.82c.88.55,1.57,1.3,2.08,2.25.5.95.76,2.03.76,3.25v.81h-8.71c.14.47.36.89.68,1.26.32.38.7.67,1.15.87s.94.3,1.47.3.99-.08,1.44-.24c.45-.16.83-.39,1.15-.69l2.03,1.85c-.72.59-1.46,1.02-2.22,1.29-.76.27-1.61.41-2.56.41Zm-3.18-7.27h5.73c-.12-.47-.32-.88-.6-1.23-.28-.35-.61-.63-1-.82-.39-.2-.81-.29-1.26-.29-.48,0-.92.09-1.31.28-.39.19-.72.46-.98.81-.26.35-.46.77-.58,1.25Z"/>
        <path class="cls-2" d="m283.1,121.76v-11.76h3.11v1.31c.36-.51.81-.9,1.34-1.17.53-.27,1.13-.41,1.79-.41.59.02,1.01.1,1.29.25v2.73c-.24-.1-.49-.19-.76-.25-.26-.06-.54-.09-.82-.09-.6,0-1.15.15-1.65.46-.5.31-.9.74-1.2,1.3v7.63h-3.11Z"/>
        <path class="cls-2" d="m296.26,121.76l-5.03-11.76h3.36l3.2,7.83,3.23-7.83h3.27l-5.01,11.76h-3.02Z"/>
        <path class="cls-2" d="m307.18,108.6c-.48,0-.9-.17-1.24-.52-.35-.35-.52-.77-.52-1.26s.17-.89.52-1.23c.35-.34.76-.51,1.24-.51s.91.17,1.25.51.51.75.51,1.23-.17.92-.51,1.26-.76.52-1.25.52Zm-1.54,13.16v-11.76h3.09v11.76h-3.09Z"/>
        <path class="cls-2" d="m316.86,121.98c-1.14,0-2.18-.27-3.1-.8-.92-.53-1.66-1.26-2.21-2.19-.55-.93-.82-1.97-.82-3.12s.27-2.17.81-3.09c.54-.92,1.28-1.65,2.21-2.19.93-.54,1.97-.81,3.11-.81.95,0,1.85.18,2.7.54.85.36,1.58.88,2.18,1.56l-1.87,2.01c-.44-.48-.89-.83-1.37-1.06-.47-.23-.99-.34-1.54-.34-.6,0-1.14.15-1.62.44s-.86.7-1.13,1.21c-.27.51-.41,1.1-.41,1.76s.14,1.21.43,1.73c.29.52.67.93,1.15,1.23s1.03.45,1.65.45c.53,0,1.02-.11,1.48-.34s.9-.56,1.32-1.02l1.85,1.94c-.62.66-1.34,1.18-2.17,1.55-.83.37-1.71.55-2.64.55Z"/>
        <path class="cls-2" d="m329.13,121.98c-1.17,0-2.24-.27-3.19-.82-.96-.55-1.71-1.28-2.27-2.19s-.83-1.94-.83-3.08.27-2.15.8-3.08,1.26-1.66,2.18-2.2c.92-.54,1.93-.81,3.05-.81s2.13.27,3.01.82c.88.55,1.57,1.3,2.08,2.25.5.95.76,2.03.76,3.25v.81h-8.71c.13.47.36.89.68,1.26.32.38.7.67,1.15.87s.94.3,1.47.3.99-.08,1.44-.24c.45-.16.83-.39,1.15-.69l2.03,1.85c-.72.59-1.46,1.02-2.22,1.29-.76.27-1.61.41-2.56.41Zm-3.18-7.27h5.73c-.12-.47-.32-.88-.6-1.23-.28-.35-.61-.63-1-.82-.39-.2-.81-.29-1.26-.29-.48,0-.92.09-1.31.28-.39.19-.72.46-.98.81-.26.35-.46.77-.58,1.25Z"/>
        <path class="cls-2" d="m341.09,121.98c-1.05,0-2.04-.14-2.97-.42-.93-.28-1.73-.67-2.4-1.18l1.53-2.08c.68.45,1.33.79,1.95,1.02.62.23,1.24.34,1.86.34.69,0,1.24-.12,1.66-.35.41-.23.62-.54.62-.91,0-.3-.12-.54-.35-.72-.23-.18-.61-.31-1.12-.38l-2.26-.34c-1.16-.18-2.04-.56-2.65-1.14-.61-.58-.91-1.34-.91-2.29,0-.77.2-1.43.6-1.99.4-.56.97-.98,1.7-1.29.74-.3,1.59-.45,2.57-.45.87,0,1.72.12,2.54.36.82.24,1.59.61,2.31,1.11l-1.49,2.01c-.65-.41-1.27-.7-1.86-.88-.59-.18-1.18-.27-1.77-.27-.56,0-1,.11-1.34.32-.34.21-.51.49-.51.83,0,.32.12.56.36.74.24.18.65.32,1.22.41l2.26.32c1.17.17,2.07.54,2.69,1.13.62.59.92,1.33.92,2.23,0,.75-.23,1.42-.68,2-.45.58-1.06,1.04-1.84,1.38-.78.34-1.66.51-2.65.51Z"/>
      </g>
      <g>
        <path class="cls-3" d="m345.76,72.09c-3.94-.19-6.26-1.05-8.23-3.05-1.51-1.74-2.37-4.83-2.37-8.47v-20.2h9.94c.47,0,.86-.39.85-.87h0v-9.72c0-.48-.38-.87-.85-.87h-9.95v-13.28c0-.48-.38-.87-.86-.87h-12.81c-.47,0-.86.39-.86.87h0v44.96c0,7.94,2.35,13.81,7.19,17.93,3.71,3.26,9.62,5.06,16.65,5.06.43,0,.86,0,1.29-.02.47-.02.83-.41.83-.87v-9.72c0-.46-.36-.84-.82-.87"/>
        <path class="cls-3" d="m200.45,71.9h-.64c-3.64,0-6.04-.81-7.54-2.55-1.55-1.86-2.3-4.83-2.3-9.1V6.79c0-.48-.38-.87-.85-.87h-12.82c-.47,0-.86.39-.85.87v53.56c0,8.31,2.32,14.37,7.08,18.5,3.44,3.05,8.82,4.73,15.16,4.73.94,0,1.9-.03,2.87-.11.45-.04.79-.42.79-.87v-9.82c0-.23-.09-.46-.26-.62-.17-.16-.39-.24-.62-.25"/>
        <path class="cls-3" d="m143.65,27.47c-17.51,0-25.36,14.21-25.36,28.29s7.93,28.21,25.63,28.21c8.05,0,15.38-2.87,20.13-7.86.29-.31.32-.78.07-1.12l-5.12-7.02c-.27-.38-.8-.47-1.18-.19,0,0,0,0,0,0-4.15,3.06-8.55,4.68-12.7,4.68-.35,0-.7-.01-1.08-.04-5.99-.18-9.95-4.23-11.24-11.44h33.82c.42,0,.79-.32.84-.74.32-2.07.48-4.16.48-6.25,0-16.61-9.08-26.52-24.29-26.52m-10.89,24.35c.6-8.14,4.66-12.8,11.19-12.8,7.18,0,10.38,3.72,10.38,12.07,0,.24,0,.48-.01.73h-21.56Z"/>
        <path class="cls-3" d="m235.93,27.47c-6.03,0-10.29,2.71-13.9,5.91l-.2-3.73c-.02-.46-.39-.82-.85-.83h-11.51c-.48,0-.86.39-.86.87v52.27c0,.47.38.86.86.87h12.81c.47,0,.86-.39.86-.87v-36.04c4.68-5.39,6.75-6.26,9.84-6.26,4.3,0,8.89,2.97,8.89,11.3v31c0,.47.38.86.85.87h12.82c.47,0,.86-.39.85-.87v-33.67c0-13.67-10.3-20.83-20.47-20.83"/>
        <path class="cls-3" d="m289.04,27.47c-17.52,0-25.36,14.21-25.36,28.29s7.93,28.21,25.63,28.21c8.05,0,15.39-2.87,20.13-7.86.29-.31.32-.78.07-1.12l-5.12-7.02c-.27-.38-.8-.47-1.18-.19,0,0,0,0-.01,0-4.15,3.06-8.55,4.68-12.7,4.68-.35,0-.7-.01-1.08-.04-5.99-.18-9.95-4.23-11.24-11.44h33.83c.42,0,.78-.32.84-.74.31-2.07.47-4.16.47-6.25,0-16.61-9.08-26.52-24.29-26.52m-10.89,24.35c.6-8.14,4.66-12.8,11.19-12.8,7.18,0,10.38,3.72,10.38,12.07,0,.24,0,.48-.01.73h-21.56Z"/>
        <path class="cls-3" d="m350.34,77.82c0-.65.12-1.3.38-1.9.49-1.16,1.41-2.1,2.56-2.6.59-.26,1.22-.39,1.87-.38.64,0,1.28.12,1.87.38,1.15.51,2.07,1.44,2.56,2.6.26.6.39,1.25.38,1.9,0,.65-.12,1.3-.38,1.9-.49,1.16-1.4,2.09-2.56,2.6-.59.26-1.22.39-1.87.39-.64,0-1.28-.13-1.87-.39-.57-.25-1.09-.61-1.53-1.05-.44-.45-.79-.97-1.03-1.55-.26-.6-.39-1.25-.38-1.9m.7,0c0,.56.11,1.11.32,1.63.21.49.5.95.88,1.33.38.38.82.68,1.31.89.51.22,1.05.33,1.61.33.55,0,1.09-.11,1.6-.33,1.53-.67,2.51-2.18,2.51-3.85.01-1.67-.97-3.19-2.51-3.85-.5-.22-1.05-.34-1.6-.33-.55,0-1.1.11-1.6.33-.49.21-.94.52-1.31.89-.37.38-.67.83-.88,1.32-.22.52-.33,1.07-.32,1.63m3.06,2.8h-.7v-5.64h2.13c.63,0,1.07.14,1.34.4.28.32.43.73.4,1.16,0,.23-.03.46-.11.68-.07.17-.17.33-.3.46-.13.13-.28.23-.45.3-.17.07-.35.13-.54.16l1.65,2.47h-.79l-1.65-2.47h-.99v2.47Zm0-3.1h.89c.19,0,.38,0,.57-.02.18,0,.35-.05.51-.12.15-.06.28-.16.37-.29.1-.16.15-.35.14-.55,0-.16-.03-.31-.11-.45-.07-.12-.17-.22-.28-.28-.12-.07-.26-.12-.4-.15-.15-.03-.3-.04-.45-.04h-1.24v1.91Z"/>
        <path class="cls-3" d="m58.76,27.56c-6.03,0-10.29,2.71-13.9,5.91l-.2-3.73c-.02-.46-.39-.82-.85-.83h-11.51c-.48,0-.86.39-.86.87v52.27c0,.47.38.86.86.87h12.81c.47,0,.86-.39.86-.87v-36.04c4.68-5.39,6.75-6.26,9.84-6.26,4.3,0,8.9,2.97,8.9,11.3v31c0,.47.38.86.85.87h12.82c.47,0,.86-.39.85-.87v-33.67c0-13.67-10.3-20.83-20.47-20.83"/>
        <path class="cls-1" d="m11.4,55.33c0-24.22,19.71-43.93,43.94-43.93s43.93,19.71,43.93,43.93-19.71,43.94-43.93,43.94S11.4,79.56,11.4,55.33M55.34,0C24.82,0,0,24.82,0,55.33s24.82,55.34,55.34,55.34,55.33-24.82,55.33-55.34S85.85,0,55.34,0Z"/>
      </g>
    </g>
  </g>
</svg>
